<svg 
 xmlns="http://www.w3.org/2000/svg"
 xmlns:xlink="http://www.w3.org/1999/xlink"
 width="130px" height="110px">
<path fill-rule="evenodd"  fill="rgb(255, 255, 255)"
 d="M117.746,70.676 C121.935,71.512 125.601,74.095 127.805,77.763 L128.390,78.737 C129.435,80.476 129.987,82.468 129.988,84.498 L129.988,94.130 C129.988,97.927 126.908,101.016 123.122,101.016 L119.609,101.016 C119.059,102.983 118.018,104.840 116.478,106.385 C114.157,108.711 111.072,109.993 107.791,109.993 C104.510,109.993 101.425,108.711 99.105,106.385 C97.565,104.840 96.523,102.983 95.973,101.016 L34.480,101.016 C33.930,102.983 32.888,104.840 31.348,106.385 C28.953,108.786 25.808,109.987 22.662,109.987 C19.516,109.987 16.371,108.786 13.976,106.385 C12.174,104.578 11.051,102.344 10.605,100.005 L3.230,96.718 C1.275,95.846 0.011,93.897 0.011,91.752 L0.011,73.766 C0.011,69.717 2.880,66.175 6.832,65.345 L9.490,64.787 C14.123,63.814 18.343,61.529 21.696,58.178 C26.995,52.884 34.033,49.968 41.513,49.968 L63.992,49.968 C69.615,49.968 75.050,51.637 79.709,54.794 L91.956,63.091 C94.149,64.577 97.455,66.630 100.847,67.306 L103.304,67.796 L103.304,45.422 L89.275,45.422 C86.729,45.422 84.656,43.344 84.656,40.790 L84.656,30.415 C84.656,30.332 84.670,30.254 84.680,30.175 C84.586,17.420 84.657,4.623 84.657,4.623 C84.657,2.069 86.729,-0.009 89.276,-0.009 L125.337,-0.009 C127.883,-0.009 129.956,2.069 129.956,4.623 L129.956,40.789 C129.956,43.343 127.884,45.422 125.337,45.422 L112.966,45.422 L112.966,69.723 L117.746,70.676 ZM101.723,103.759 C103.344,105.384 105.499,106.279 107.791,106.279 C110.083,106.279 112.238,105.384 113.858,103.759 C116.778,100.830 117.149,96.298 114.972,92.962 C114.961,92.946 114.950,92.929 114.939,92.913 C114.876,92.817 114.810,92.723 114.742,92.629 C114.711,92.587 114.680,92.545 114.649,92.503 C114.593,92.430 114.536,92.355 114.477,92.282 C114.425,92.217 114.371,92.153 114.317,92.090 C114.272,92.037 114.229,91.984 114.182,91.933 C114.078,91.816 113.970,91.700 113.858,91.589 C112.238,89.963 110.083,89.068 107.791,89.068 C105.499,89.068 103.344,89.963 101.724,91.589 C101.612,91.700 101.504,91.815 101.400,91.933 C101.353,91.984 101.309,92.038 101.265,92.091 C101.211,92.153 101.157,92.217 101.105,92.281 C101.045,92.355 100.989,92.430 100.932,92.504 C100.901,92.545 100.870,92.586 100.840,92.629 C100.772,92.722 100.706,92.817 100.642,92.914 C100.631,92.929 100.621,92.946 100.611,92.962 C98.432,96.297 98.803,100.830 101.723,103.759 ZM16.594,103.759 C18.215,105.384 20.370,106.279 22.662,106.279 C24.954,106.279 27.109,105.384 28.729,103.759 C31.649,100.830 32.020,96.299 29.842,92.962 C29.831,92.946 29.821,92.929 29.810,92.912 C29.746,92.817 29.680,92.722 29.612,92.629 C29.582,92.586 29.550,92.544 29.519,92.503 C29.463,92.429 29.407,92.355 29.348,92.282 C29.296,92.217 29.241,92.153 29.187,92.089 C29.142,92.036 29.099,91.984 29.053,91.933 C28.948,91.815 28.841,91.700 28.729,91.588 C28.625,91.485 28.520,91.384 28.412,91.286 C28.396,91.272 28.378,91.257 28.362,91.243 C28.268,91.160 28.175,91.077 28.079,91.000 C28.075,90.997 28.072,90.994 28.068,90.991 C24.933,88.436 20.407,88.433 17.268,90.981 C17.260,90.987 17.251,90.994 17.243,91.001 C17.153,91.074 17.066,91.150 16.979,91.227 C16.956,91.248 16.932,91.267 16.910,91.288 C16.823,91.367 16.737,91.449 16.653,91.533 C16.633,91.551 16.613,91.569 16.594,91.589 C16.586,91.597 16.578,91.607 16.569,91.615 C16.469,91.716 16.372,91.819 16.278,91.924 C16.240,91.966 16.206,92.009 16.169,92.051 C16.106,92.125 16.042,92.198 15.981,92.274 C15.940,92.326 15.900,92.379 15.860,92.431 C15.808,92.499 15.757,92.566 15.707,92.635 C15.664,92.694 15.622,92.755 15.581,92.816 C15.539,92.878 15.497,92.939 15.457,93.001 C15.412,93.071 15.369,93.140 15.327,93.210 C15.294,93.264 15.262,93.318 15.230,93.373 C15.185,93.453 15.140,93.532 15.097,93.613 C15.074,93.656 15.051,93.699 15.029,93.744 C14.982,93.836 14.935,93.929 14.891,94.024 C14.879,94.049 14.868,94.075 14.857,94.100 C13.416,97.274 13.995,101.151 16.594,103.759 ZM125.337,41.709 C125.842,41.709 126.253,41.296 126.253,40.790 L126.253,4.623 C126.253,4.117 125.842,3.705 125.337,3.705 L89.276,3.705 C88.771,3.705 88.360,4.117 88.360,4.623 C88.360,4.623 88.360,18.013 88.318,30.027 C88.344,30.152 88.360,30.281 88.360,30.415 L88.360,40.790 C88.360,41.296 88.771,41.709 89.276,41.709 L125.337,41.709 ZM107.007,45.422 L107.007,68.534 L109.262,68.984 L109.262,45.422 L107.007,45.422 ZM100.125,70.948 C96.077,70.141 92.342,67.833 89.884,66.168 L77.637,57.871 C73.592,55.130 68.874,53.682 63.993,53.682 L41.513,53.682 C35.020,53.682 28.910,56.212 24.311,60.809 C20.448,64.668 15.586,67.300 10.250,68.421 L7.592,68.980 C5.346,69.452 3.715,71.465 3.715,73.766 L3.715,91.752 C3.715,92.431 4.115,93.048 4.734,93.324 L10.505,95.896 C10.704,94.514 11.138,93.181 11.783,91.950 C11.786,91.945 11.789,91.939 11.791,91.934 C11.880,91.764 11.973,91.597 12.071,91.431 C12.076,91.422 12.082,91.412 12.087,91.403 C12.286,91.066 12.502,90.737 12.734,90.419 C12.760,90.382 12.788,90.347 12.814,90.311 C12.901,90.195 12.989,90.080 13.080,89.967 C13.118,89.920 13.157,89.872 13.195,89.825 C13.283,89.719 13.373,89.614 13.464,89.511 C13.502,89.468 13.539,89.425 13.577,89.382 C13.707,89.241 13.839,89.100 13.976,88.962 C16.370,86.561 19.516,85.360 22.662,85.360 C25.021,85.360 27.380,86.035 29.423,87.386 C30.103,87.836 30.749,88.362 31.348,88.962 C31.494,89.110 31.637,89.260 31.775,89.413 C31.797,89.438 31.817,89.463 31.839,89.487 C31.957,89.620 32.073,89.755 32.185,89.891 C32.193,89.901 32.200,89.911 32.208,89.921 C33.920,92.030 34.871,94.604 34.944,97.303 L95.509,97.303 C95.582,94.607 96.531,92.036 98.238,89.930 C98.248,89.916 98.258,89.903 98.269,89.890 C98.375,89.760 98.486,89.631 98.598,89.505 C98.626,89.474 98.652,89.441 98.679,89.411 C98.798,89.281 98.920,89.152 99.044,89.026 C99.065,89.004 99.084,88.983 99.105,88.962 C100.845,87.217 103.015,86.060 105.375,85.591 C106.162,85.434 106.970,85.354 107.791,85.354 C108.816,85.354 109.822,85.479 110.792,85.722 C112.925,86.257 114.882,87.362 116.477,88.962 C116.498,88.983 116.518,89.005 116.539,89.027 C116.663,89.153 116.784,89.281 116.902,89.410 C116.931,89.443 116.958,89.475 116.986,89.507 C117.097,89.633 117.207,89.760 117.312,89.889 C117.324,89.903 117.335,89.918 117.346,89.932 C119.052,92.039 120.000,94.609 120.073,97.302 L123.121,97.302 C124.865,97.302 126.284,95.879 126.284,94.130 L126.285,94.130 L126.285,84.498 C126.285,83.143 125.916,81.814 125.219,80.654 L124.634,79.680 C122.966,76.905 120.193,74.951 117.024,74.319 L100.125,70.948 ZM91.165,77.473 C91.165,77.473 43.071,77.473 28.735,77.394 C28.573,77.440 28.406,77.473 28.230,77.473 L20.566,77.473 C17.909,77.473 15.748,75.305 15.748,72.640 C15.748,70.831 16.743,69.188 18.345,68.354 C21.055,66.943 23.530,65.127 25.703,62.955 C29.931,58.732 35.545,56.405 41.512,56.405 L63.992,56.405 C68.477,56.405 72.813,57.736 76.530,60.255 L88.778,68.553 C89.535,69.066 90.326,69.550 91.127,69.992 C92.853,70.943 93.925,72.749 93.925,74.704 C93.925,76.231 92.687,77.473 91.165,77.473 ZM46.545,60.119 L41.512,60.119 C36.532,60.119 31.845,62.060 28.317,65.586 C25.877,68.024 23.096,70.064 20.052,71.650 C19.681,71.843 19.450,72.222 19.450,72.640 C19.450,73.257 19.951,73.759 20.566,73.759 L28.230,73.759 C28.360,73.759 28.487,73.773 28.610,73.799 C31.111,73.794 46.545,73.759 46.545,73.759 L46.545,60.119 ZM89.343,73.247 C88.443,72.750 87.555,72.207 86.705,71.630 L74.458,63.332 C71.355,61.230 67.736,60.120 63.992,60.120 L50.249,60.120 L50.249,73.759 L89.918,73.759 C89.771,73.552 89.576,73.375 89.343,73.247 ZM49.117,80.296 L54.836,80.296 C55.859,80.296 56.688,81.127 56.688,82.153 C56.688,83.178 55.859,84.009 54.836,84.009 L49.117,84.009 C48.094,84.009 47.265,83.178 47.265,82.153 C47.265,81.127 48.094,80.296 49.117,80.296 ZM102.311,10.580 L108.656,10.580 C112.664,10.580 115.821,12.511 115.821,17.703 L115.821,17.893 C115.821,23.084 112.570,25.078 108.403,25.078 L104.868,25.078 L104.868,32.422 C104.868,33.278 103.826,33.721 102.816,33.721 C101.774,33.721 100.764,33.277 100.764,32.422 L100.764,11.846 L100.765,11.846 C100.765,11.181 101.364,10.580 102.311,10.580 ZM104.868,21.850 L108.403,21.850 C110.455,21.850 111.717,20.679 111.717,18.209 L111.717,17.829 C111.717,15.360 110.455,14.189 108.403,14.189 L104.868,14.189 L104.868,21.850 ZM22.662,92.035 C24.163,92.035 25.575,92.622 26.637,93.687 C28.829,95.885 28.829,99.462 26.637,101.660 C25.575,102.725 24.164,103.312 22.662,103.312 C21.160,103.312 19.749,102.725 18.687,101.660 C17.625,100.596 17.040,99.180 17.040,97.674 C17.040,96.168 17.625,94.752 18.687,93.687 C19.749,92.622 21.160,92.035 22.662,92.035 ZM21.305,99.034 C21.668,99.398 22.149,99.597 22.662,99.597 C23.174,99.597 23.656,99.398 24.018,99.034 C24.766,98.284 24.766,97.063 24.018,96.313 C23.656,95.950 23.174,95.749 22.662,95.749 C22.149,95.749 21.668,95.950 21.305,96.313 C20.943,96.676 20.743,97.160 20.743,97.673 C20.743,98.187 20.943,98.670 21.305,99.034 ZM107.791,92.035 C109.292,92.035 110.704,92.622 111.766,93.688 C112.827,94.752 113.412,96.168 113.412,97.674 C113.412,99.180 112.827,100.596 111.766,101.660 C110.704,102.725 109.292,103.312 107.791,103.312 C106.289,103.312 104.877,102.725 103.816,101.660 C101.624,99.462 101.624,95.885 103.816,93.687 C104.878,92.622 106.289,92.035 107.791,92.035 ZM106.434,99.034 C106.796,99.398 107.279,99.598 107.791,99.598 C108.303,99.598 108.785,99.398 109.147,99.034 C109.510,98.670 109.709,98.187 109.709,97.674 C109.709,97.160 109.510,96.677 109.147,96.313 C108.785,95.950 108.303,95.750 107.791,95.750 C107.279,95.750 106.796,95.950 106.434,96.313 C105.687,97.064 105.687,98.284 106.434,99.034 ZM59.253,33.825 C59.976,34.550 59.976,35.725 59.253,36.451 C58.891,36.814 58.417,36.994 57.944,36.994 C57.470,36.994 56.996,36.814 56.634,36.451 C54.066,33.876 49.888,33.876 47.319,36.451 C46.596,37.176 45.424,37.176 44.701,36.451 C43.977,35.725 43.977,34.550 44.701,33.825 C48.713,29.801 55.241,29.801 59.253,33.825 ZM39.802,28.911 C39.079,29.636 37.906,29.636 37.183,28.911 C36.460,28.186 36.460,27.011 37.183,26.285 C45.340,18.104 58.613,18.104 66.771,26.285 C67.494,27.011 67.494,28.186 66.771,28.911 C66.409,29.274 65.935,29.455 65.461,29.455 C64.987,29.455 64.514,29.274 64.152,28.911 C57.439,22.179 46.515,22.179 39.802,28.911 ZM73.100,21.794 C72.626,21.794 72.153,21.613 71.791,21.250 C66.498,15.942 59.461,13.019 51.977,13.019 C44.492,13.019 37.455,15.942 32.162,21.250 C31.440,21.975 30.267,21.975 29.544,21.250 C28.821,20.525 28.821,19.349 29.544,18.624 C35.536,12.614 43.503,9.305 51.977,9.305 C60.451,9.305 68.417,12.614 74.410,18.624 C75.133,19.349 75.133,20.525 74.410,21.250 C74.048,21.613 73.574,21.794 73.100,21.794 Z"/>
</svg>