<svg 
 xmlns="http://www.w3.org/2000/svg"
 xmlns:xlink="http://www.w3.org/1999/xlink"
 width="72px" height="70px">
<path fill-rule="evenodd"  fill="rgb(255, 255, 255)"
 d="M71.832,53.719 C71.228,51.726 70.141,49.914 68.669,48.447 C66.325,46.076 63.135,44.748 59.810,44.757 C58.111,44.758 56.430,45.105 54.867,45.776 L42.544,33.386 L58.906,17.059 L62.782,16.949 C63.250,16.934 63.679,16.680 63.918,16.274 L69.463,6.899 C69.786,6.358 69.701,5.665 69.258,5.219 L64.466,0.401 C64.022,-0.045 63.333,-0.130 62.795,0.194 L53.471,5.770 C53.067,6.010 52.814,6.441 52.800,6.912 L52.690,10.795 L36.368,27.177 L25.168,15.916 C26.344,9.060 21.770,2.544 14.951,1.362 C11.791,0.814 8.543,1.505 5.875,3.292 C5.249,3.718 5.084,4.574 5.508,5.204 C5.627,5.381 5.785,5.528 5.971,5.632 L12.187,9.115 C13.557,9.900 13.830,12.240 12.721,14.223 C11.612,16.205 9.490,17.224 8.107,16.453 L2.342,13.314 C1.680,12.948 0.847,13.191 0.483,13.856 C0.357,14.086 0.299,14.347 0.316,14.608 C0.749,21.551 6.699,26.827 13.605,26.391 C15.032,26.301 16.432,25.967 17.747,25.401 L27.934,35.644 L23.525,40.076 L22.525,39.085 C21.419,38.021 19.675,38.021 18.568,39.085 L17.199,40.462 C16.156,41.483 16.090,43.146 17.048,44.248 L0.850,60.506 C-0.243,61.558 -0.281,63.301 0.765,64.399 C0.793,64.428 0.821,64.457 0.850,64.485 L5.478,69.139 C6.524,70.237 8.257,70.275 9.350,69.224 C9.379,69.196 9.408,69.168 9.435,69.139 L25.647,52.852 C26.743,53.816 28.397,53.750 29.413,52.701 L30.782,51.324 C31.875,50.273 31.913,48.530 30.867,47.431 C30.840,47.402 30.811,47.373 30.782,47.345 L29.783,46.341 L34.164,41.838 L47.446,55.192 C46.299,62.053 50.900,68.550 57.724,69.703 C61.765,70.387 65.884,69.039 68.752,66.096 C69.254,65.528 69.204,64.657 68.640,64.152 C68.494,64.021 68.322,63.924 68.135,63.865 L60.427,61.787 C59.671,61.542 59.073,60.957 58.811,60.204 C58.410,59.166 58.362,58.023 58.674,56.954 C59.249,54.793 61.070,53.251 62.604,53.664 L70.230,55.729 C70.353,55.748 70.478,55.748 70.600,55.729 C71.356,55.739 71.977,55.130 71.986,54.369 C71.988,54.143 71.936,53.920 71.832,53.719 ZM54.977,12.323 C55.223,12.073 55.365,11.738 55.374,11.387 L55.483,7.711 L63.247,3.072 L66.533,6.376 L62.015,14.168 L58.290,14.305 C57.941,14.314 57.607,14.457 57.359,14.705 L40.654,31.486 L38.299,29.118 L54.977,12.323 ZM7.491,67.183 L2.794,62.489 L19.075,46.162 L21.430,48.530 L23.675,50.870 L7.491,67.183 ZM27.523,50.663 L25.716,48.833 L25.017,48.130 L19.266,42.307 L20.636,40.930 L28.851,49.300 L27.523,50.663 ZM27.783,44.386 L25.428,42.017 L29.837,37.585 L32.192,39.953 L27.783,44.386 ZM63.274,51.008 C62.868,50.898 62.449,50.842 62.028,50.842 C59.043,51.085 56.579,53.286 55.990,56.239 C55.523,57.896 55.614,59.663 56.250,61.263 C56.837,62.803 58.110,63.976 59.687,64.430 L64.781,65.807 C60.136,68.590 54.127,67.060 51.359,62.389 C50.059,60.196 49.658,57.582 50.239,55.096 C50.343,54.633 50.204,54.150 49.869,53.816 L19.006,22.758 C18.568,22.344 17.913,22.266 17.391,22.565 C15.977,23.316 14.402,23.708 12.803,23.708 C8.684,23.712 5.004,21.119 3.602,17.224 L6.724,18.972 C7.452,19.382 8.272,19.596 9.106,19.592 C11.642,19.445 13.909,17.957 15.063,15.682 C16.925,12.336 16.199,8.358 13.461,6.816 L9.476,4.545 C14.568,2.716 20.170,5.384 21.989,10.503 C22.620,12.280 22.731,14.202 22.306,16.040 C22.202,16.502 22.342,16.986 22.676,17.321 L53.608,48.406 C54.030,48.831 54.679,48.932 55.209,48.653 C56.624,47.904 58.198,47.511 59.796,47.510 C63.264,47.508 66.473,49.352 68.231,52.357 L63.274,51.008 Z"/>
</svg>