<svg 
 xmlns="http://www.w3.org/2000/svg"
 xmlns:xlink="http://www.w3.org/1999/xlink"
 width="70px" height="70px">
<path fill-rule="evenodd"  fill="rgb(255, 255, 255)"
 d="M33.571,-0.001 C50.980,-0.248 62.255,9.594 67.370,21.631 C70.834,29.783 70.862,40.649 67.300,48.689 C63.194,57.955 56.342,64.295 46.706,68.046 C44.636,68.852 42.298,69.213 39.946,69.691 C39.289,69.829 37.449,70.033 38.097,69.946 C38.745,69.859 37.074,70.007 36.373,70.007 C34.741,70.054 32.699,69.948 31.466,69.765 C30.354,69.600 29.576,69.593 28.528,69.411 C25.352,68.678 22.495,67.708 19.877,66.506 C10.858,62.364 4.319,54.564 1.349,44.348 C0.096,40.036 -0.570,33.522 0.614,28.492 C1.393,25.180 2.385,22.343 3.591,19.566 C4.216,18.127 5.165,16.759 6.007,15.506 C10.028,9.522 15.488,5.090 22.644,2.239 C24.913,1.335 27.456,0.814 30.104,0.313 C30.882,0.167 32.722,0.033 33.571,-0.001 ZM34.727,2.309 C33.583,2.379 32.439,2.449 31.295,2.519 C29.088,2.919 26.924,3.181 24.990,3.884 C14.875,7.558 7.847,14.220 4.151,24.291 C3.388,26.372 2.983,28.628 2.610,31.012 C2.387,32.013 2.386,32.904 2.326,34.138 C2.288,34.942 2.340,36.180 2.377,36.962 C2.384,37.638 2.556,38.316 2.610,38.993 C2.976,40.873 3.231,42.738 3.801,44.348 C4.163,45.372 4.338,46.246 4.712,47.219 C7.174,53.632 11.739,58.725 17.075,62.306 C18.408,63.199 19.815,63.834 21.313,64.581 C24.189,66.014 26.884,66.590 30.559,67.311 C31.513,67.498 32.569,67.534 33.746,67.591 C34.342,67.614 34.937,67.638 35.533,67.661 C36.455,67.614 37.377,67.568 38.300,67.521 C40.328,67.180 42.350,67.016 44.149,66.401 C52.294,63.616 57.749,59.597 62.186,53.134 C63.267,51.560 64.409,49.734 65.128,47.849 C66.009,45.540 66.712,43.132 67.300,40.463 C67.592,39.137 67.574,37.954 67.650,36.438 C67.681,35.530 67.721,34.405 67.650,33.497 C67.554,31.966 67.556,30.842 67.300,29.542 C66.845,27.229 66.185,25.069 65.443,23.101 C61.243,11.956 50.072,2.330 34.727,2.309 ZM26.497,6.194 C26.508,6.217 26.520,6.241 26.532,6.264 C26.520,6.241 26.508,6.217 26.497,6.194 ZM23.274,7.104 C24.475,7.157 24.960,8.630 24.010,9.275 C23.520,9.496 23.029,9.718 22.539,9.940 C21.424,10.573 20.243,11.137 19.212,11.865 C16.033,14.110 13.537,16.801 11.331,20.021 C10.771,21.048 10.210,22.074 9.650,23.101 C9.468,23.498 9.399,23.954 9.125,24.256 C8.805,24.607 8.096,24.902 7.548,24.536 C7.148,24.269 6.902,23.544 7.163,22.926 C7.811,21.397 8.679,19.913 9.545,18.586 C12.957,13.356 17.299,9.801 23.274,7.104 ZM34.412,12.845 C45.027,13.131 52.047,18.428 55.321,26.111 C56.676,29.290 57.906,34.278 56.898,38.818 C56.481,40.692 56.004,42.554 55.251,44.138 C52.437,50.063 47.895,53.967 41.452,56.285 C40.043,56.792 38.447,56.890 36.829,57.160 C35.860,57.160 34.891,57.160 33.922,57.160 C33.396,57.137 32.871,57.114 32.346,57.090 C30.573,56.717 28.897,56.377 27.407,55.830 C20.831,53.414 16.062,48.598 13.958,41.723 C13.108,38.947 12.460,34.768 13.187,31.257 C13.478,29.857 13.798,28.410 14.308,27.162 C16.745,21.196 21.078,16.471 27.232,14.245 C28.556,13.766 29.989,13.391 31.470,13.125 C32.451,13.032 33.431,12.938 34.412,12.845 ZM34.797,15.155 C34.377,15.179 33.957,15.202 33.536,15.225 C32.137,15.445 30.353,15.403 29.334,16.065 C29.342,16.824 30.256,18.255 30.594,18.866 C31.482,20.767 32.369,22.669 33.256,24.572 C33.723,24.560 34.190,24.548 34.657,24.536 C35.431,24.524 36.261,24.701 36.864,24.572 C37.728,22.705 38.592,20.838 39.455,18.970 C39.802,18.200 40.671,17.023 40.786,16.170 C40.751,16.112 40.716,16.054 40.681,15.995 C38.945,15.516 37.008,15.174 34.797,15.155 ZM26.812,16.941 C25.753,17.769 24.340,18.060 23.415,19.006 C23.741,19.813 24.415,20.457 24.885,21.141 C25.891,22.601 26.902,24.040 27.898,25.481 C28.202,25.921 28.927,27.382 29.474,27.441 C29.845,27.270 31.239,26.542 31.365,26.217 C31.431,25.936 30.629,24.536 30.454,24.221 C30.139,23.498 29.824,22.774 29.509,22.051 C28.995,21.013 28.481,19.974 27.968,18.936 C27.761,18.479 27.300,16.997 26.812,16.941 ZM43.098,16.941 C42.419,17.741 42.028,19.060 41.592,20.056 C40.623,22.097 39.654,24.140 38.685,26.181 C38.931,26.534 40.277,27.391 40.786,27.441 C41.377,27.084 42.053,25.710 42.468,25.096 C43.483,23.638 44.499,22.179 45.515,20.721 C45.870,20.223 46.536,19.627 46.671,18.970 C45.972,18.462 44.037,17.023 43.098,16.941 ZM21.418,20.581 C20.788,21.269 20.157,21.958 19.527,22.646 C18.477,24.013 17.722,25.426 16.935,27.092 C16.589,27.824 15.715,29.570 15.849,30.522 C16.410,30.749 17.280,30.584 17.951,30.697 C19.643,30.860 21.337,31.024 23.029,31.187 C23.777,31.304 24.915,31.427 25.306,31.152 C25.708,30.040 26.517,29.294 26.917,28.282 C25.142,25.715 23.368,23.147 21.593,20.581 C21.535,20.581 21.476,20.581 21.418,20.581 ZM48.527,20.581 C47.219,22.459 45.912,24.338 44.604,26.217 C44.267,26.734 43.271,27.715 43.203,28.352 C43.472,28.725 43.740,29.099 44.009,29.472 C44.380,30.050 44.543,30.890 45.024,31.362 C47.429,31.152 49.834,30.942 52.239,30.732 C52.759,30.639 54.035,30.814 54.306,30.452 C54.465,29.887 53.593,28.064 53.395,27.547 C52.510,25.232 51.227,23.558 49.823,21.806 C49.437,21.410 49.052,21.013 48.667,20.616 C48.620,20.604 48.573,20.593 48.527,20.581 ZM34.342,26.847 C34.108,27.048 34.039,27.383 33.817,27.582 C33.267,28.073 32.490,28.375 31.820,28.737 C30.981,29.190 30.163,29.964 29.193,30.242 C28.972,30.230 28.750,30.218 28.528,30.207 C28.123,30.699 27.569,31.402 27.442,32.132 C27.594,32.365 27.746,32.599 27.898,32.832 C28.175,33.525 28.154,36.033 27.968,36.858 C27.861,37.328 27.506,37.529 27.442,38.013 C27.821,38.658 28.081,39.645 28.668,40.078 C28.975,40.305 29.735,40.084 30.139,40.253 C30.933,40.696 31.727,41.140 32.521,41.583 C33.115,41.909 33.378,42.778 33.852,43.018 C34.187,43.172 35.372,43.320 35.813,43.123 C36.155,42.971 36.267,42.354 36.618,42.143 C38.031,41.350 39.444,40.556 40.856,39.763 C41.078,39.763 41.300,39.763 41.522,39.763 C41.991,39.563 42.591,38.425 42.643,37.838 C42.479,37.557 42.316,37.278 42.152,36.998 C41.945,36.256 41.949,33.978 42.117,33.182 C42.224,32.677 42.605,32.491 42.643,31.957 C42.314,31.328 42.002,30.335 41.452,29.927 C41.125,29.685 40.400,29.924 39.981,29.752 C39.175,29.297 38.370,28.841 37.564,28.387 C37.128,28.118 36.400,26.983 36.198,26.917 C35.580,26.893 34.961,26.870 34.342,26.847 ZM34.517,30.347 C37.101,30.308 38.659,31.428 39.385,33.217 C40.670,36.378 38.312,39.147 35.813,39.623 C32.297,40.293 29.349,36.551 30.699,33.252 C31.155,32.139 32.138,31.111 33.256,30.662 C33.677,30.557 34.097,30.452 34.517,30.347 ZM34.972,32.657 C33.972,33.038 33.345,33.117 32.906,34.022 C32.148,35.587 33.630,37.633 35.323,37.313 C38.176,36.774 38.024,33.009 34.972,32.657 ZM15.464,32.867 C15.145,33.385 15.130,36.528 15.429,37.103 C18.826,36.822 22.224,36.542 25.621,36.262 C25.839,35.783 25.847,34.128 25.586,33.708 C22.212,33.427 18.838,33.147 15.464,32.867 ZM54.306,32.867 C51.025,33.159 47.744,33.450 44.464,33.742 C44.247,34.243 44.247,35.818 44.499,36.262 C47.884,36.542 51.271,36.822 54.656,37.103 C54.875,36.638 55.000,33.166 54.621,32.902 C54.516,32.890 54.411,32.879 54.306,32.867 ZM24.780,38.643 C22.411,38.864 20.040,39.086 17.671,39.308 C17.070,39.410 16.218,39.253 15.779,39.518 C15.814,40.265 16.145,40.968 16.375,41.548 C17.655,44.784 19.153,47.254 21.453,49.424 C21.511,49.413 21.570,49.401 21.628,49.389 C22.947,47.476 24.267,45.562 25.586,43.648 C25.819,43.325 26.992,41.944 26.847,41.548 C26.497,41.035 26.146,40.521 25.796,40.008 C25.609,39.588 25.423,39.168 25.236,38.748 C25.137,38.639 24.992,38.645 24.780,38.643 ZM45.024,38.643 C44.844,38.824 43.220,41.607 43.203,41.793 C44.406,43.508 45.608,45.224 46.810,46.939 C47.220,47.570 47.997,49.071 48.597,49.424 C49.076,49.142 49.481,48.593 49.823,48.164 C51.240,46.384 52.440,44.696 53.395,42.388 C53.607,41.877 54.486,39.959 54.166,39.413 C51.119,39.156 48.071,38.900 45.024,38.643 ZM29.334,42.528 C28.622,43.145 28.152,44.119 27.617,44.908 C26.263,46.822 24.909,48.736 23.554,50.649 C23.566,50.742 23.578,50.836 23.590,50.929 C24.722,51.583 25.855,52.236 26.987,52.889 C27.595,52.412 27.889,51.292 28.213,50.544 C28.890,48.977 29.704,47.449 30.419,45.854 C30.567,45.524 31.474,44.088 31.400,43.753 C31.362,43.580 29.619,42.581 29.334,42.528 ZM40.576,42.563 C40.011,42.990 39.217,43.221 38.720,43.718 C38.770,44.481 39.394,45.192 39.666,45.819 C40.360,47.420 41.201,48.937 41.872,50.509 C42.144,51.146 42.657,52.689 43.133,53.065 C43.870,52.975 46.321,51.511 46.671,51.000 C46.552,50.296 45.369,49.036 44.954,48.444 C43.589,46.484 42.222,44.523 40.856,42.563 C40.763,42.563 40.670,42.563 40.576,42.563 ZM61.696,45.294 C62.771,45.269 63.329,46.093 62.922,47.079 C62.316,48.544 61.514,50.020 60.680,51.314 C57.627,56.056 54.028,59.019 49.052,61.851 C47.765,62.583 46.252,63.314 44.709,63.741 C44.039,63.926 43.144,64.248 42.678,63.601 C42.270,63.034 42.460,62.219 42.958,61.885 C43.647,61.652 44.336,61.419 45.024,61.185 C46.369,60.552 47.762,60.025 49.017,59.295 C52.371,57.345 55.620,54.673 57.738,51.489 C58.487,50.364 59.274,49.207 59.910,47.989 C60.505,46.847 60.554,45.940 61.696,45.294 ZM33.361,45.364 C32.843,45.858 32.576,46.841 32.276,47.534 C31.575,48.969 30.874,50.404 30.174,51.839 C29.965,52.249 29.253,53.656 29.439,53.974 C31.845,54.700 35.622,55.125 38.475,54.465 C39.073,54.326 40.529,54.255 40.751,53.834 C40.834,53.381 40.204,52.595 40.016,52.189 C39.283,50.607 38.496,49.063 37.809,47.499 C37.616,47.058 37.101,45.585 36.759,45.399 C36.350,45.422 35.941,45.446 35.533,45.469 C34.809,45.434 34.085,45.399 33.361,45.364 Z"/>
</svg>